# Blender v2.93.0 OBJ File: 'cat_ears.blend'
# www.blender.org
mtllib cat_ears.mtl
o cat_ears
v 0.062500 0.000000 0.031250
v 0.062500 0.000000 -0.031250
v 0.250000 0.000000 0.031250
v 0.156250 0.187500 0.031250
v 0.250000 0.000000 -0.031250
v 0.156250 0.187500 -0.031250
v -0.250000 0.000000 0.031250
v -0.250000 0.000000 -0.031250
v -0.062500 0.000000 0.031250
v -0.156250 0.187500 0.031250
v -0.062500 0.000000 -0.031250
v -0.156250 0.187500 -0.031250
vt 0.937500 0.812500
vt 0.937500 1.000000
vt 0.875000 1.000000
vt 0.875000 0.812500
vt 0.187500 0.750000
vt 0.375000 0.750000
vt 0.375000 0.812500
vt 0.187500 0.812500
vt 1.000000 0.812500
vt 1.000000 1.000000
vt 0.937500 0.812500
vt 0.281250 1.000000
vt 0.562500 0.812500
vt 0.750000 0.812500
vt 0.656250 1.000000
vt 0.875000 0.812500
vt 0.875000 1.000000
vt 0.812500 1.000000
vt 0.812500 0.812500
vt 0.000000 0.750000
vt 0.187500 0.750000
vt 0.187500 0.812500
vt 0.000000 0.812500
vt 0.812500 0.812500
vt 0.750000 1.000000
vt 0.750000 0.812500
vt 0.093750 1.000000
vt 0.375000 0.812500
vt 0.562500 0.812500
vt 0.468750 1.000000
vn 0.8944 0.4472 -0.0000
vn 0.0000 -1.0000 0.0000
vn -0.8944 0.4472 0.0000
vn 0.0000 -0.0000 1.0000
vn -0.0000 -0.0000 -1.0000
usemtl cat_ears
s off
f 5/1/1 6/2/1 4/3/1 3/4/1
f 2/5/2 5/6/2 3/7/2 1/8/2
f 1/9/3 4/10/3 6/2/3 2/11/3
f 4/12/4 1/8/4 3/7/4
f 5/13/5 2/14/5 6/15/5
f 11/16/1 12/17/1 10/18/1 9/19/1
f 8/20/2 11/21/2 9/22/2 7/23/2
f 7/24/3 10/18/3 12/25/3 8/26/3
f 10/27/4 7/23/4 9/22/4
f 11/28/5 8/29/5 12/30/5
