# Blender v2.93.1 OBJ File: 'ring.blend'
# www.blender.org
mtllib teleport_at.mtl
o Torus
v -0.218750 0.000000 0.000000
v -0.187500 -0.062500 0.000000
v -0.156250 -0.000000 0.000000
v -0.187500 0.062500 0.000000
v -0.154680 0.000000 -0.154680
v -0.132583 -0.062500 -0.132583
v -0.110485 -0.000000 -0.110485
v -0.132583 0.062500 -0.132583
v -0.000000 0.000000 -0.218750
v -0.000000 -0.062500 -0.187500
v -0.000000 -0.000000 -0.156250
v -0.000000 0.062500 -0.187500
v 0.154680 0.000000 -0.154680
v 0.132583 -0.062500 -0.132582
v 0.110485 -0.000000 -0.110485
v 0.132583 0.062500 -0.132582
v 0.218750 0.000000 -0.000000
v 0.187500 -0.062500 -0.000000
v 0.156250 -0.000000 -0.000000
v 0.187500 0.062500 -0.000000
v 0.154680 0.000000 0.154680
v 0.132583 -0.062500 0.132582
v 0.110485 -0.000000 0.110485
v 0.132583 0.062500 0.132582
v -0.000000 0.000000 0.218750
v -0.000000 -0.062500 0.187500
v -0.000000 -0.000000 0.156250
v -0.000000 0.062500 0.187500
v -0.154680 0.000000 0.154680
v -0.132582 -0.062500 0.132583
v -0.110485 -0.000000 0.110485
v -0.132582 0.062500 0.132583
vt 0.250001 0.937500
vt 0.375001 0.937500
vt 0.375001 0.999988
vt 0.250001 0.999988
vt 0.250001 0.874992
vt 0.375000 0.874992
vt 0.375000 0.812500
vt 0.250001 0.812500
vt 0.375000 0.750008
vt 0.250001 0.750008
vt 0.250001 0.875012
vt 0.375001 0.875012
vt 0.500000 0.937500
vt 0.500000 0.999988
vt 0.500000 0.874991
vt 0.500000 0.812500
vt 0.500000 0.750008
vt 0.500000 0.875012
vt 0.625000 0.937500
vt 0.625000 0.999988
vt 0.624999 0.874991
vt 0.624999 0.812500
vt 0.624999 0.750008
vt 0.625000 0.875012
vt 0.749999 0.937500
vt 0.749999 0.999988
vt 0.749999 0.874991
vt 0.749999 0.812500
vt 0.749999 0.750008
vt 0.749999 0.875012
vt 0.874999 0.937500
vt 0.874999 0.999988
vt 0.874998 0.874991
vt 0.874998 0.812500
vt 0.874998 0.750008
vt 0.874999 0.875012
vt 0.999998 0.937500
vt 0.999998 0.999988
vt 0.999997 0.874991
vt 0.999997 0.812500
vt 0.999997 0.750008
vt 0.999998 0.875012
vt 0.000002 0.937500
vt 0.125001 0.937500
vt 0.125001 0.999988
vt 0.000002 0.999988
vt 0.000002 0.874992
vt 0.125002 0.874992
vt 0.125002 0.812500
vt 0.000002 0.812500
vt 0.125002 0.750008
vt 0.000002 0.750008
vt 0.000002 0.875012
vt 0.125001 0.875012
vn -0.8387 -0.4194 -0.3474
vn 0.8387 -0.4194 0.3474
vn 0.8387 0.4194 0.3474
vn -0.8387 0.4194 -0.3474
vn -0.3474 -0.4194 -0.8387
vn 0.3474 -0.4194 0.8387
vn 0.3474 0.4194 0.8387
vn -0.3474 0.4194 -0.8387
vn 0.3474 -0.4194 -0.8387
vn -0.3474 -0.4194 0.8387
vn -0.3474 0.4194 0.8387
vn 0.3474 0.4194 -0.8387
vn 0.8387 -0.4194 -0.3474
vn -0.8387 -0.4194 0.3474
vn -0.8387 0.4194 0.3474
vn 0.8387 0.4194 -0.3474
usemtl Material
s off
f 1/1/1 5/2/1 6/3/1 2/4/1
f 2/5/2 6/6/2 7/7/2 3/8/2
f 3/8/3 7/7/3 8/9/3 4/10/3
f 4/11/4 8/12/4 5/2/4 1/1/4
f 5/2/5 9/13/5 10/14/5 6/3/5
f 6/6/6 10/15/6 11/16/6 7/7/6
f 7/7/7 11/16/7 12/17/7 8/9/7
f 8/12/8 12/18/8 9/13/8 5/2/8
f 9/13/9 13/19/9 14/20/9 10/14/9
f 10/15/10 14/21/10 15/22/10 11/16/10
f 11/16/11 15/22/11 16/23/11 12/17/11
f 12/18/12 16/24/12 13/19/12 9/13/12
f 13/19/13 17/25/13 18/26/13 14/20/13
f 14/21/14 18/27/14 19/28/14 15/22/14
f 15/22/15 19/28/15 20/29/15 16/23/15
f 16/24/16 20/30/16 17/25/16 13/19/16
f 17/25/2 21/31/2 22/32/2 18/26/2
f 18/27/1 22/33/1 23/34/1 19/28/1
f 19/28/4 23/34/4 24/35/4 20/29/4
f 20/30/3 24/36/3 21/31/3 17/25/3
f 21/31/6 25/37/6 26/38/6 22/32/6
f 22/33/5 26/39/5 27/40/5 23/34/5
f 23/34/8 27/40/8 28/41/8 24/35/8
f 24/36/7 28/42/7 25/37/7 21/31/7
f 25/43/10 29/44/10 30/45/10 26/46/10
f 26/47/9 30/48/9 31/49/9 27/50/9
f 27/50/12 31/49/12 32/51/12 28/52/12
f 28/53/11 32/54/11 29/44/11 25/43/11
f 29/44/14 1/1/14 2/4/14 30/45/14
f 30/48/13 2/5/13 3/8/13 31/49/13
f 31/49/16 3/8/16 4/10/16 32/51/16
f 32/54/15 4/11/15 1/1/15 29/44/15
